<mxfile host="app.diagrams.net" modified="2022-10-06T19:55:42.773Z" agent="5.0 (Windows NT 10.0; Win64; x64) AppleWebKit/537.36 (KHTML, like Gecko) Chrome/105.0.0.0 Safari/537.36" etag="3-BfQN_9ohvtSW6d-7i7" version="20.4.0" type="github">
  <diagram id="QUWLHqUXrnmNoyzQJEGA" name="Page-1">
    <mxGraphModel dx="2031" dy="1077" grid="0" gridSize="10" guides="1" tooltips="1" connect="1" arrows="1" fold="1" page="1" pageScale="1" pageWidth="827" pageHeight="1169" math="0" shadow="0">
      <root>
        <mxCell id="0" />
        <mxCell id="1" parent="0" />
        <mxCell id="v6WbEAY-MrD24lhqeNnE-1" value="" style="edgeStyle=orthogonalEdgeStyle;rounded=0;orthogonalLoop=1;jettySize=auto;html=1;" edge="1" parent="1" source="v6WbEAY-MrD24lhqeNnE-2" target="v6WbEAY-MrD24lhqeNnE-5">
          <mxGeometry relative="1" as="geometry" />
        </mxCell>
        <mxCell id="v6WbEAY-MrD24lhqeNnE-2" value="" style="ellipse;whiteSpace=wrap;html=1;direction=east;fillColor=#050505;" vertex="1" parent="1">
          <mxGeometry x="394" y="20" width="30" height="30" as="geometry" />
        </mxCell>
        <mxCell id="v6WbEAY-MrD24lhqeNnE-3" value="" style="edgeStyle=orthogonalEdgeStyle;rounded=0;orthogonalLoop=1;jettySize=auto;html=1;" edge="1" parent="1" source="v6WbEAY-MrD24lhqeNnE-5" target="v6WbEAY-MrD24lhqeNnE-7">
          <mxGeometry relative="1" as="geometry" />
        </mxCell>
        <mxCell id="v6WbEAY-MrD24lhqeNnE-4" value="[user is logged in]" style="edgeLabel;html=1;align=center;verticalAlign=middle;resizable=0;points=[];" vertex="1" connectable="0" parent="v6WbEAY-MrD24lhqeNnE-3">
          <mxGeometry x="-0.25" y="-1" relative="1" as="geometry">
            <mxPoint as="offset" />
          </mxGeometry>
        </mxCell>
        <mxCell id="v6WbEAY-MrD24lhqeNnE-5" value="Open app" style="rounded=1;whiteSpace=wrap;html=1;fillColor=#FFFFFF;" vertex="1" parent="1">
          <mxGeometry x="349" y="100" width="120" height="60" as="geometry" />
        </mxCell>
        <mxCell id="v6WbEAY-MrD24lhqeNnE-27" style="edgeStyle=orthogonalEdgeStyle;rounded=0;orthogonalLoop=1;jettySize=auto;html=1;entryX=0.5;entryY=0;entryDx=0;entryDy=0;" edge="1" parent="1" source="v6WbEAY-MrD24lhqeNnE-7" target="v6WbEAY-MrD24lhqeNnE-9">
          <mxGeometry relative="1" as="geometry" />
        </mxCell>
        <mxCell id="v6WbEAY-MrD24lhqeNnE-7" value="Click on appropriate area" style="rounded=1;whiteSpace=wrap;html=1;fillColor=#FFFFFF;" vertex="1" parent="1">
          <mxGeometry x="349" y="230" width="120" height="60" as="geometry" />
        </mxCell>
        <mxCell id="v6WbEAY-MrD24lhqeNnE-26" value="" style="edgeStyle=orthogonalEdgeStyle;rounded=0;orthogonalLoop=1;jettySize=auto;html=1;" edge="1" parent="1" source="v6WbEAY-MrD24lhqeNnE-9" target="v6WbEAY-MrD24lhqeNnE-25">
          <mxGeometry relative="1" as="geometry" />
        </mxCell>
        <mxCell id="v6WbEAY-MrD24lhqeNnE-30" style="edgeStyle=orthogonalEdgeStyle;rounded=0;orthogonalLoop=1;jettySize=auto;html=1;entryX=0.5;entryY=0;entryDx=0;entryDy=0;" edge="1" parent="1" source="v6WbEAY-MrD24lhqeNnE-9" target="v6WbEAY-MrD24lhqeNnE-29">
          <mxGeometry relative="1" as="geometry" />
        </mxCell>
        <mxCell id="v6WbEAY-MrD24lhqeNnE-31" style="edgeStyle=orthogonalEdgeStyle;rounded=0;orthogonalLoop=1;jettySize=auto;html=1;entryX=0.5;entryY=0;entryDx=0;entryDy=0;" edge="1" parent="1" source="v6WbEAY-MrD24lhqeNnE-9" target="v6WbEAY-MrD24lhqeNnE-28">
          <mxGeometry relative="1" as="geometry" />
        </mxCell>
        <mxCell id="v6WbEAY-MrD24lhqeNnE-9" value="Display relevant goals" style="rounded=1;whiteSpace=wrap;html=1;fillColor=#FFFFFF;spacingLeft=1;" vertex="1" parent="1">
          <mxGeometry x="349" y="350" width="120" height="60" as="geometry" />
        </mxCell>
        <mxCell id="v6WbEAY-MrD24lhqeNnE-10" value="" style="ellipse;whiteSpace=wrap;html=1;direction=east;fillColor=#050505;" vertex="1" parent="1">
          <mxGeometry x="394" y="970" width="30" height="30" as="geometry" />
        </mxCell>
        <mxCell id="v6WbEAY-MrD24lhqeNnE-35" value="" style="edgeStyle=orthogonalEdgeStyle;rounded=0;orthogonalLoop=1;jettySize=auto;html=1;" edge="1" parent="1" source="v6WbEAY-MrD24lhqeNnE-25" target="v6WbEAY-MrD24lhqeNnE-34">
          <mxGeometry relative="1" as="geometry" />
        </mxCell>
        <mxCell id="v6WbEAY-MrD24lhqeNnE-25" value="Select option to edit goal" style="rounded=1;whiteSpace=wrap;html=1;fillColor=#FFFFFF;spacingLeft=1;" vertex="1" parent="1">
          <mxGeometry x="349" y="490" width="120" height="60" as="geometry" />
        </mxCell>
        <mxCell id="v6WbEAY-MrD24lhqeNnE-33" value="" style="edgeStyle=orthogonalEdgeStyle;rounded=0;orthogonalLoop=1;jettySize=auto;html=1;" edge="1" parent="1" source="v6WbEAY-MrD24lhqeNnE-28" target="v6WbEAY-MrD24lhqeNnE-32">
          <mxGeometry relative="1" as="geometry" />
        </mxCell>
        <mxCell id="v6WbEAY-MrD24lhqeNnE-28" value="Select option to create goal" style="rounded=1;whiteSpace=wrap;html=1;fillColor=#FFFFFF;spacingLeft=1;" vertex="1" parent="1">
          <mxGeometry x="170" y="490" width="120" height="60" as="geometry" />
        </mxCell>
        <mxCell id="v6WbEAY-MrD24lhqeNnE-37" value="" style="edgeStyle=orthogonalEdgeStyle;rounded=0;orthogonalLoop=1;jettySize=auto;html=1;entryX=1;entryY=0.5;entryDx=0;entryDy=0;" edge="1" parent="1" source="v6WbEAY-MrD24lhqeNnE-29" target="v6WbEAY-MrD24lhqeNnE-42">
          <mxGeometry relative="1" as="geometry">
            <mxPoint x="580" y="630" as="targetPoint" />
            <Array as="points">
              <mxPoint x="580" y="890" />
            </Array>
          </mxGeometry>
        </mxCell>
        <mxCell id="v6WbEAY-MrD24lhqeNnE-29" value="Select option to remove goal" style="rounded=1;whiteSpace=wrap;html=1;fillColor=#FFFFFF;spacingLeft=1;" vertex="1" parent="1">
          <mxGeometry x="520" y="490" width="120" height="60" as="geometry" />
        </mxCell>
        <mxCell id="v6WbEAY-MrD24lhqeNnE-41" value="" style="edgeStyle=orthogonalEdgeStyle;rounded=0;orthogonalLoop=1;jettySize=auto;html=1;" edge="1" parent="1" source="v6WbEAY-MrD24lhqeNnE-32" target="v6WbEAY-MrD24lhqeNnE-40">
          <mxGeometry relative="1" as="geometry" />
        </mxCell>
        <mxCell id="v6WbEAY-MrD24lhqeNnE-32" value="Enter information for goal" style="rounded=1;whiteSpace=wrap;html=1;fillColor=#FFFFFF;spacingLeft=1;" vertex="1" parent="1">
          <mxGeometry x="170" y="630" width="120" height="60" as="geometry" />
        </mxCell>
        <mxCell id="v6WbEAY-MrD24lhqeNnE-39" value="" style="edgeStyle=orthogonalEdgeStyle;rounded=0;orthogonalLoop=1;jettySize=auto;html=1;" edge="1" parent="1" source="v6WbEAY-MrD24lhqeNnE-34" target="v6WbEAY-MrD24lhqeNnE-38">
          <mxGeometry relative="1" as="geometry" />
        </mxCell>
        <mxCell id="v6WbEAY-MrD24lhqeNnE-34" value="Edit information for goal" style="rounded=1;whiteSpace=wrap;html=1;fillColor=#FFFFFF;spacingLeft=1;" vertex="1" parent="1">
          <mxGeometry x="349" y="630" width="120" height="60" as="geometry" />
        </mxCell>
        <mxCell id="v6WbEAY-MrD24lhqeNnE-44" style="edgeStyle=orthogonalEdgeStyle;rounded=0;orthogonalLoop=1;jettySize=auto;html=1;entryX=0.5;entryY=0;entryDx=0;entryDy=0;" edge="1" parent="1" source="v6WbEAY-MrD24lhqeNnE-38" target="v6WbEAY-MrD24lhqeNnE-42">
          <mxGeometry relative="1" as="geometry" />
        </mxCell>
        <mxCell id="v6WbEAY-MrD24lhqeNnE-38" value="Save changes" style="rounded=1;whiteSpace=wrap;html=1;fillColor=#FFFFFF;spacingLeft=1;" vertex="1" parent="1">
          <mxGeometry x="349" y="740" width="120" height="60" as="geometry" />
        </mxCell>
        <mxCell id="v6WbEAY-MrD24lhqeNnE-45" style="edgeStyle=orthogonalEdgeStyle;rounded=0;orthogonalLoop=1;jettySize=auto;html=1;entryX=0;entryY=0.5;entryDx=0;entryDy=0;" edge="1" parent="1" source="v6WbEAY-MrD24lhqeNnE-40" target="v6WbEAY-MrD24lhqeNnE-42">
          <mxGeometry relative="1" as="geometry">
            <Array as="points">
              <mxPoint x="230" y="890" />
            </Array>
          </mxGeometry>
        </mxCell>
        <mxCell id="v6WbEAY-MrD24lhqeNnE-40" value="Create goal" style="rounded=1;whiteSpace=wrap;html=1;fillColor=#FFFFFF;spacingLeft=1;" vertex="1" parent="1">
          <mxGeometry x="170" y="740" width="120" height="60" as="geometry" />
        </mxCell>
        <mxCell id="v6WbEAY-MrD24lhqeNnE-46" style="edgeStyle=orthogonalEdgeStyle;rounded=0;orthogonalLoop=1;jettySize=auto;html=1;entryX=0.5;entryY=0;entryDx=0;entryDy=0;" edge="1" parent="1" source="v6WbEAY-MrD24lhqeNnE-42" target="v6WbEAY-MrD24lhqeNnE-10">
          <mxGeometry relative="1" as="geometry" />
        </mxCell>
        <mxCell id="v6WbEAY-MrD24lhqeNnE-42" value="Display remaining goals" style="rounded=1;whiteSpace=wrap;html=1;fillColor=#FFFFFF;spacingLeft=1;" vertex="1" parent="1">
          <mxGeometry x="349" y="860" width="120" height="60" as="geometry" />
        </mxCell>
        <mxCell id="v6WbEAY-MrD24lhqeNnE-47" style="edgeStyle=orthogonalEdgeStyle;rounded=0;orthogonalLoop=1;jettySize=auto;html=1;entryX=0.5;entryY=0;entryDx=0;entryDy=0;" edge="1" parent="1" target="v6WbEAY-MrD24lhqeNnE-50">
          <mxGeometry relative="1" as="geometry">
            <mxPoint x="469" y="120" as="sourcePoint" />
          </mxGeometry>
        </mxCell>
        <mxCell id="v6WbEAY-MrD24lhqeNnE-48" value="[user is not logged in]" style="edgeLabel;html=1;align=center;verticalAlign=middle;resizable=0;points=[];" vertex="1" connectable="0" parent="v6WbEAY-MrD24lhqeNnE-47">
          <mxGeometry x="-0.5349" y="-2" relative="1" as="geometry">
            <mxPoint x="32" y="-2" as="offset" />
          </mxGeometry>
        </mxCell>
        <mxCell id="v6WbEAY-MrD24lhqeNnE-49" style="edgeStyle=orthogonalEdgeStyle;rounded=0;orthogonalLoop=1;jettySize=auto;html=1;entryX=1;entryY=0.617;entryDx=0;entryDy=0;entryPerimeter=0;" edge="1" parent="1" source="v6WbEAY-MrD24lhqeNnE-50">
          <mxGeometry relative="1" as="geometry">
            <mxPoint x="469" y="257.02" as="targetPoint" />
            <Array as="points">
              <mxPoint x="614" y="257" />
            </Array>
          </mxGeometry>
        </mxCell>
        <mxCell id="v6WbEAY-MrD24lhqeNnE-50" value="Log into app" style="rounded=1;whiteSpace=wrap;html=1;fillColor=#FFFFFF;" vertex="1" parent="1">
          <mxGeometry x="554" y="160" width="120" height="60" as="geometry" />
        </mxCell>
      </root>
    </mxGraphModel>
  </diagram>
</mxfile>
